<?xml version="1.0" encoding="UTF-8"?>
<svg xmlns="http://www.w3.org/2000/svg" viewBox="0 0 80 80" width="1024" height="1024" aria-label="Hermes Agent">
  <defs>
    <clipPath id="iconClip">
      <rect width="80" height="80" rx="18"/>
    </clipPath>
  </defs>
  <rect width="80" height="80" rx="18" fill="#0a0a0a"/>
  <g clip-path="url(#iconClip)">
    <g transform="translate(-2,2)">
      <polygon points="58,22 58,58 62,54 62,18" fill="#bab7af"/>
      <polygon points="50,22 58,22 62,18 54,18" fill="#dbd8d0"/>
      <polygon points="30,36 50,36 54,32 34,32" fill="#d98a5a"/>
      <polygon points="30,22 30,36 34,32 34,18" fill="#bab7af"/>
      <polygon points="30,44 30,58 34,54 34,40" fill="#bab7af"/>
      <polygon points="22,22 30,22 34,18 26,18" fill="#dbd8d0"/>
      <path d="M22,22 H30 V36 H50 V22 H58 V58 H50 V44 H30 V58 H22 Z" fill="#fbfaf6"/>
      <rect x="30" y="36" width="20" height="8" fill="#c96b3a"/>
    </g>
  </g>
</svg>
